<svg width="81" height="80" viewBox="0 0 81 80" fill="none" xmlns="http://www.w3.org/2000/svg">
<path fill-rule="evenodd" clip-rule="evenodd" d="M40.6308 0.817383C18.5778 0.817383 0.75 18.7763 0.75 40.994C0.75 58.7538 12.1729 73.787 28.0194 79.1078C30.0006 79.5078 30.7263 78.2433 30.7263 77.1796C30.7263 76.2482 30.661 73.0556 30.661 69.7291C19.5671 72.1242 17.2569 64.9398 17.2569 64.9398C15.4741 60.2835 12.8324 59.0868 12.8324 59.0868C9.20143 56.6256 13.0969 56.6256 13.0969 56.6256C17.1247 56.8917 19.2382 60.7496 19.2382 60.7496C22.8031 66.8688 28.5476 65.1398 30.8586 64.0753C31.1884 61.4811 32.2455 59.6852 33.368 58.6876C24.5198 57.7562 15.2104 54.2975 15.2104 38.865C15.2104 34.4749 16.7941 30.8831 19.3035 28.0897C18.9076 27.0921 17.5206 22.9673 19.7002 17.4466C19.7002 17.4466 23.0676 16.3821 30.6602 21.5706C33.9109 20.6911 37.2633 20.2437 40.6308 20.24C43.9982 20.24 47.4308 20.7061 50.6006 21.5706C58.1941 16.3821 61.5614 17.4466 61.5614 17.4466C63.741 22.9673 62.3533 27.0921 61.9573 28.0897C64.5329 30.8831 66.0512 34.4749 66.0512 38.865C66.0512 54.2975 56.7418 57.6893 47.8276 58.6876C49.2806 59.9513 50.5345 62.3455 50.5345 66.1373C50.5345 71.525 50.4692 75.849 50.4692 77.1788C50.4692 78.2433 51.1957 79.5078 53.1761 79.1086C69.0227 73.7862 80.4455 58.7538 80.4455 40.994C80.5108 18.7763 62.6178 0.817383 40.6308 0.817383Z" fill="#24292F"/>
</svg>
