<svg width="100" height="90" viewBox="0 0 100 90" fill="none" xmlns="http://www.w3.org/2000/svg">
<g clip-path="url(#clip0_101_86)">
<path d="M82.2174 29.3533C81.1536 28.9881 80.0812 28.6489 79 28.3359C79.1797 27.6055 79.3464 26.8721 79.5 26.1359C81.9348 14.3098 80.3435 4.77938 74.9 1.64025C69.6826 -1.36845 61.1522 1.77068 52.5348 9.27068C51.6855 10.0098 50.8565 10.7707 50.0478 11.5533C49.5058 11.0316 48.9551 10.5214 48.3956 10.0229C39.3609 2.00981 30.3043 -1.3641 24.8696 1.77503C19.6652 4.79242 18.1217 13.7533 20.3043 24.962C20.5275 26.0721 20.7739 27.1765 21.0435 28.275C19.7696 28.6402 18.5304 29.0272 17.3478 29.4402C6.76087 33.1359 0 38.9185 0 44.9185C0 51.1142 7.26087 57.3315 18.287 61.0924C19.1797 61.3997 20.0812 61.6837 20.9913 61.9446C20.6957 63.1243 20.4348 64.3127 20.2087 65.5098C18.113 76.5229 19.7478 85.2707 24.9478 88.2707C30.313 91.3663 39.3217 88.1837 48.1 80.5142C48.7957 79.9113 49.4913 79.2707 50.187 78.5924C51.0623 79.4417 51.9609 80.2649 52.8826 81.062C61.387 88.375 69.7783 91.3228 74.9696 88.3228C80.3391 85.2142 82.0826 75.8185 79.8174 64.3881C79.6435 63.5185 79.4435 62.6286 79.2174 61.7185C79.8493 61.533 80.4696 61.3402 81.0783 61.1402C92.5435 57.3402 100 51.1968 100 44.9185C100 38.8924 93.0217 33.0707 82.2174 29.3533ZM55.3478 12.4968C62.7304 6.07068 69.6304 3.54025 72.7826 5.34894C76.1304 7.27938 77.4261 15.0663 75.3217 25.2794C75.1855 25.946 75.0362 26.6084 74.8739 27.2663C70.4675 26.2675 65.9997 25.5616 61.5 25.1533C58.9216 21.4498 56.0964 17.9244 53.0435 14.6011C53.7913 13.8823 54.5565 13.1808 55.3391 12.4968H55.3478ZM29.5217 50.0359C30.429 51.7866 31.3754 53.5113 32.3609 55.2098C33.3667 56.9489 34.413 58.6634 35.5 60.3533C32.4043 60.0186 29.3277 59.5252 26.2826 58.875C27.1696 56.0185 28.2565 53.0489 29.5261 50.0402L29.5217 50.0359ZM29.5217 39.9924C28.2783 37.0446 27.2174 34.1446 26.3478 31.3402C29.1957 30.7011 32.2391 30.1794 35.4087 29.7837C34.3478 31.4359 33.3261 33.1171 32.3435 34.8272C31.358 36.5258 30.4159 38.2475 29.5174 39.9924H29.5217ZM31.7913 45.0185C33.1072 42.2794 34.5275 39.5924 36.0522 36.9576C37.5652 34.32 39.1797 31.7475 40.8957 29.2402C43.8696 29.0142 46.9174 28.8924 50 28.8924C53.0956 28.8924 56.1478 29.0142 59.1217 29.2402C60.8174 31.7475 62.4232 34.3127 63.9391 36.9359C65.4638 39.562 66.9015 42.2359 68.2522 44.9576C66.9188 47.7055 65.487 50.404 63.9565 53.0533C62.4406 55.6852 60.8406 58.2649 59.1565 60.7924C56.1913 61.0098 53.1261 61.1142 50 61.1142C46.887 61.1142 43.8609 61.0185 40.9478 60.8272C39.2203 58.3055 37.5913 55.7214 36.0609 53.075C34.5362 50.4373 33.113 47.7504 31.7913 45.0142V45.0185ZM67.6609 55.1924C68.6638 53.4446 69.629 51.6765 70.5565 49.8881C71.827 52.7613 72.9473 55.6986 73.913 58.6881C70.8341 59.379 67.7211 59.9087 64.587 60.275C65.642 58.5997 66.6652 56.904 67.6565 55.1881L67.6609 55.1924ZM70.513 39.9968C69.5913 38.246 68.6348 36.5127 67.6435 34.7968C66.6638 33.1098 65.6493 31.4431 64.6 29.7968C67.787 30.2011 70.8435 30.7359 73.7174 31.3924C72.7947 34.314 71.7252 37.1872 70.513 40.0011V39.9968ZM50.0435 17.6663C52.1242 19.9338 54.089 22.3049 55.9304 24.7707C51.9942 24.5823 48.0551 24.5823 44.113 24.7707C46.0565 22.2055 48.0478 19.8229 50.0478 17.6663H50.0435ZM27.0174 5.47068C30.3652 3.5359 37.7565 6.29677 45.5565 13.2229C46.0565 13.6663 46.5565 14.1272 47.0565 14.6055C43.9859 17.9292 41.1391 21.4529 38.5348 25.1533C34.0483 25.5561 29.5926 26.2488 25.1957 27.2272C24.9406 26.2069 24.7116 25.1779 24.5087 24.1402V24.1489C22.6261 14.5402 23.8739 7.29677 27.0174 5.47938V5.47068ZM22.1304 57.8315C21.3043 57.5939 20.4841 57.3373 19.6696 57.062C15.4322 55.729 11.4764 53.6273 8 50.862C7.00517 50.1781 6.16122 49.2974 5.52032 48.2744C4.87942 47.2513 4.45521 46.1077 4.27391 44.9142C4.27391 41.275 9.7 36.6315 18.7522 33.4794C19.8913 33.0794 21.0391 32.7171 22.1957 32.3924C23.5388 36.7038 25.1656 40.9217 27.0652 45.0185C25.1415 49.1749 23.4945 53.4537 22.1348 57.8272L22.1304 57.8315ZM45.287 77.3098C42.016 80.3101 38.2209 82.6829 34.0913 84.3098C33.0035 84.8313 31.8203 85.1243 30.6149 85.1707C29.4094 85.217 28.2073 85.0158 27.0826 84.5794C23.9304 82.7533 22.6174 75.7359 24.4043 66.3185C24.6188 65.2026 24.8623 64.0953 25.1348 62.9968C29.5783 63.9502 34.0814 64.601 38.613 64.9446C41.2385 68.665 44.1055 72.2088 47.1956 75.5533C46.5754 76.1533 45.9406 76.7373 45.2913 77.3055L45.287 77.3098ZM50.1652 72.475C48.1391 70.2924 46.1217 67.875 44.1478 65.275C46.0609 65.3504 48.0116 65.3881 50 65.3881C52.0377 65.3881 54.0493 65.3446 56.0348 65.2576C54.2028 67.7621 52.2437 70.1711 50.1652 72.475ZM76.1087 78.4185C76.0166 79.6223 75.6786 80.7944 75.1155 81.8623C74.5523 82.9302 73.7761 83.8713 72.8348 84.6272C69.6826 86.4533 62.9435 84.0794 55.6739 77.8272C54.842 77.1142 54.0043 76.3518 53.1609 75.5402C56.1916 72.1852 58.9921 68.6293 61.5435 64.8968C66.1005 64.5125 70.6257 63.8152 75.087 62.8098C75.2899 63.633 75.4696 64.4388 75.6261 65.2272C76.5937 69.5592 76.7559 74.0322 76.1043 78.4229L76.1087 78.4185ZM79.7348 57.0837C79.1826 57.2663 78.6217 57.4402 78.0478 57.6055C76.6503 53.2737 74.9594 49.0422 72.987 44.9402C74.8866 40.8941 76.5134 36.7253 77.8565 32.462C78.8739 32.7533 79.8696 33.0707 80.8261 33.3968C90.087 36.5794 95.7304 41.2924 95.7304 44.9185C95.7304 48.7881 89.6304 53.8055 79.7304 57.0837H79.7348Z" fill="#61DAFB"/>
<path d="M50 35.9881C51.7667 35.9881 53.4936 36.5121 54.9624 37.4937C56.4312 38.4754 57.5758 39.8707 58.2515 41.503C58.9272 43.1353 59.1035 44.9314 58.7582 46.6639C58.4129 48.3965 57.5615 49.9878 56.3117 51.2364C55.0619 52.4849 53.4698 53.3348 51.7369 53.6784C50.004 54.022 48.2081 53.8439 46.5765 53.1667C44.9448 52.4894 43.5506 51.3434 42.5704 49.8737C41.5902 48.4039 41.0679 46.6765 41.0696 44.9098C41.073 42.5436 42.0154 40.2754 43.6899 38.6035C45.3643 36.9315 47.6338 35.9924 50 35.9924" fill="#61DAFB"/>
</g>
<defs>
<clipPath id="clip0_101_86">
<rect width="100" height="88.9716" fill="white" transform="translate(0 0.51416)"/>
</clipPath>
</defs>
</svg>
