<svg width="90" height="90" viewBox="0 0 90 90" fill="none" xmlns="http://www.w3.org/2000/svg">
<mask id="mask0_897_5248" style="mask-type:alpha" maskUnits="userSpaceOnUse" x="5" y="5" width="80" height="80">
<path fill-rule="evenodd" clip-rule="evenodd" d="M61.7295 84.4544C62.9895 84.9453 64.4262 84.9139 65.698 84.3019L82.1686 76.3765C83.8994 75.5437 85 73.7921 85 71.8705V18.1314C85 16.2098 83.8994 14.4582 82.1687 13.6254L65.698 5.69974C64.029 4.89663 62.0757 5.09334 60.6108 6.15829C60.4016 6.31042 60.2022 6.48028 60.0152 6.66746L28.4841 35.4339L14.7498 25.0084C13.4712 24.0379 11.6829 24.1175 10.4955 25.1976L6.09042 29.2047C4.63796 30.5259 4.63629 32.8109 6.08682 34.1343L17.9977 45.0008L6.08682 55.8673C4.63629 57.1907 4.63796 59.4758 6.09042 60.797L10.4955 64.804C11.6829 65.8842 13.4712 65.9637 14.7498 64.9931L28.4841 54.5677L60.0152 83.3341C60.514 83.8332 61.0997 84.2091 61.7295 84.4544ZM65.0122 26.8399L41.0873 45.0008L65.0122 63.1617V26.8399Z" fill="white"/>
</mask>
<g mask="url(#mask0_897_5248)">
<path d="M82.1689 13.637L65.6853 5.70051C63.7773 4.78186 61.4972 5.16936 59.9998 6.66674L6.03866 55.8666C4.58724 57.1899 4.58891 59.475 6.04226 60.7962L10.45 64.8033C11.6381 65.8834 13.4276 65.963 14.7068 64.9925L79.6885 15.696C81.8686 14.0422 84.9998 15.597 84.9998 18.3334V18.1421C84.9998 16.2213 83.8995 14.4703 82.1689 13.637Z" fill="#0065A9"/>
<g filter="url(#filter0_d_897_5248)">
<path d="M82.1689 76.3622L65.6853 84.2988C63.7773 85.2176 61.4972 84.8299 59.9998 83.3325L6.03866 34.1327C4.58724 32.8094 4.58891 30.5242 6.04226 29.203L10.45 25.196C11.6381 24.1158 13.4276 24.0363 14.7068 25.0068L79.6885 74.3033C81.8686 75.9571 84.9998 74.4022 84.9998 71.6659V71.8573C84.9998 73.778 83.8995 75.5289 82.1689 76.3622Z" fill="#007ACC"/>
</g>
<g filter="url(#filter1_d_897_5248)">
<path d="M65.6882 84.3009C63.7796 85.2191 61.4995 84.8307 60.002 83.3331C61.8471 85.1783 65.002 83.8715 65.002 81.2621V8.73756C65.002 6.12817 61.8471 4.82137 60.002 6.66649C61.4995 5.16898 63.7796 4.78092 65.6882 5.69876L82.1689 13.6244C83.9007 14.4572 85.002 16.2088 85.002 18.1304V71.8695C85.002 73.7911 83.9007 75.5427 82.1688 76.3755L65.6882 84.3009Z" fill="#1F9CF0"/>
</g>
<g style="mix-blend-mode:overlay" opacity="0.25">
<path fill-rule="evenodd" clip-rule="evenodd" d="M61.6807 84.4535C62.9407 84.9443 64.3775 84.9128 65.6492 84.3009L82.1198 76.3756C83.8505 75.5428 84.9512 73.7912 84.9512 71.8695V18.1304C84.9512 16.2088 83.8506 14.4572 82.1199 13.6244L65.6492 5.69876C63.9802 4.89565 62.0268 5.09236 60.562 6.15731C60.3528 6.30944 60.1534 6.4793 59.9664 6.66648L28.4352 35.4329L14.7009 25.0075C13.4224 24.0369 11.6341 24.1165 10.4466 25.1966L6.0416 29.2036C4.58913 30.5249 4.58747 32.81 6.038 34.1333L17.9488 44.9998L6.038 55.8664C4.58747 57.1897 4.58913 59.4748 6.0416 60.796L10.4466 64.803C11.6341 65.8832 13.4224 65.9627 14.7009 64.9922L28.4352 54.5667L59.9664 83.3332C60.4652 83.8322 61.0508 84.2081 61.6807 84.4535ZM64.9633 26.8389L41.0384 44.9998L64.9633 63.1608V26.8389Z" fill="url(#paint0_linear_897_5248)"/>
</g>
</g>
<defs>
<filter id="filter0_d_897_5248" x="-1.7155" y="17.6624" width="93.3822" height="73.7962" filterUnits="userSpaceOnUse" color-interpolation-filters="sRGB">
<feFlood flood-opacity="0" result="BackgroundImageFix"/>
<feColorMatrix in="SourceAlpha" type="matrix" values="0 0 0 0 0 0 0 0 0 0 0 0 0 0 0 0 0 0 127 0" result="hardAlpha"/>
<feOffset/>
<feGaussianBlur stdDeviation="3.33334"/>
<feColorMatrix type="matrix" values="0 0 0 0 0 0 0 0 0 0 0 0 0 0 0 0 0 0 0.25 0"/>
<feBlend mode="overlay" in2="BackgroundImageFix" result="effect1_dropShadow_897_5248"/>
<feBlend mode="normal" in="SourceGraphic" in2="effect1_dropShadow_897_5248" result="shape"/>
</filter>
<filter id="filter1_d_897_5248" x="53.3353" y="-1.46062" width="38.3333" height="92.9212" filterUnits="userSpaceOnUse" color-interpolation-filters="sRGB">
<feFlood flood-opacity="0" result="BackgroundImageFix"/>
<feColorMatrix in="SourceAlpha" type="matrix" values="0 0 0 0 0 0 0 0 0 0 0 0 0 0 0 0 0 0 127 0" result="hardAlpha"/>
<feOffset/>
<feGaussianBlur stdDeviation="3.33334"/>
<feColorMatrix type="matrix" values="0 0 0 0 0 0 0 0 0 0 0 0 0 0 0 0 0 0 0.25 0"/>
<feBlend mode="overlay" in2="BackgroundImageFix" result="effect1_dropShadow_897_5248"/>
<feBlend mode="normal" in="SourceGraphic" in2="effect1_dropShadow_897_5248" result="shape"/>
</filter>
<linearGradient id="paint0_linear_897_5248" x1="44.9512" y1="5.20605" x2="44.9512" y2="84.7936" gradientUnits="userSpaceOnUse">
<stop stop-color="white"/>
<stop offset="1" stop-color="white" stop-opacity="0"/>
</linearGradient>
</defs>
</svg>
